<svg width="18" height="23" viewBox="0 0 18 23" fill="none" xmlns="http://www.w3.org/2000/svg">
<rect width="18" height="23" fill="#1E1E1E"/>
<rect width="6692" height="1887" transform="translate(-3323 -700)" fill="black"/>
<g clip-path="url(#clip0_0_1)">
<rect width="1440" height="1046" transform="translate(-34 -476)" fill="#FAFAFB"/>
<rect x="-34" y="-477" width="218" height="1047" fill="white"/>
<g opacity="0.4">
<path fill-rule="evenodd" clip-rule="evenodd" d="M15.7071 7.81964C15.7071 9.20272 16.039 10.0179 16.7695 10.9574C17.3231 11.6495 17.5 12.5379 17.5 13.5017C17.5 14.4644 17.2128 15.3784 16.6373 16.1204C15.884 17.0099 14.8215 17.5778 13.7372 17.6765C12.1659 17.824 10.5937 17.9482 9.0005 17.9482C7.40634 17.9482 5.83505 17.8739 4.26375 17.6765C3.17846 17.5778 2.11602 17.0099 1.36367 16.1204C0.78822 15.3784 0.5 14.4644 0.5 13.5017C0.5 12.5379 0.677901 11.6495 1.23049 10.9574C1.98384 10.0179 2.29392 9.20272 2.29392 7.81964V7.35048C2.29392 5.49823 2.71333 4.28706 3.577 3.1014C4.86106 1.37227 6.91935 0.335236 8.95577 0.335236H9.04522C11.1254 0.335236 13.2502 1.42218 14.5125 3.22563C15.3314 4.38688 15.7071 5.54703 15.7071 7.35048V7.81964ZM6.07373 20.2246C6.07373 19.67 6.53588 19.416 6.96324 19.3073C7.46315 19.1909 10.5093 19.1909 11.0092 19.3073C11.4366 19.416 11.8988 19.67 11.8988 20.2246C11.8739 20.7525 11.5926 21.2206 11.204 21.5178C10.7002 21.9504 10.1088 22.2243 9.49063 22.323C9.14874 22.3718 8.81281 22.3729 8.48285 22.323C7.86368 22.2243 7.27233 21.9504 6.76943 21.5167C6.37984 21.2206 6.09858 20.7525 6.07373 20.2246Z" fill="#030229"/>
</g>
</g>
<defs>
<clipPath id="clip0_0_1">
<rect width="1440" height="1046" fill="white" transform="translate(-34 -476)"/>
</clipPath>
</defs>
</svg>
